{"title":"Fast Five *2011* [PPVRip.XviD-miguel] [ENG]","uid":6544625,"size":1606501118,"categoryP":"video","categoryS":"movies","magnet":"?xt=urn:btih:b2d919ba11fb6225814a3ca0c05d9c6e3d7739a3&amp;dn=Fast+Five+%2A2011%2A+%5BPPVRip.XviD-miguel%5D+%5BENG%5D&amp;tr=udp%3A%2F%2Ftracker.openbittorrent.com%3A80&amp;tr=udp%3A%2F%2Fopen.demonii.com%3A1337&amp;tr=udp%3A%2F%2Ftracker.coppersurfer.tk%3A6969&amp;tr=udp%3A%2F%2Fexodus.desync.com%3A6969","seeders":0,"leechers":1,"uploader":"miguel1983","files":-1,"time":1310807979,"description":" &lt;a href=&quot;http://img59.imageshack.us/img59/9254/ab73b7.jpg&quot; rel=&quot;nofollow&quot; target=&quot;_NEW&quot;&gt;http://img59.imageshack.us/img59/9254/ab73b7.jpg&lt;/a&gt;\n\nCountry.......: USA\nGenre.........: Action, Drama, Crime, Thriller\nDate release..: 15.04.2011 [World]\nDirector......: Justin Lin\nWriters.......: Chris Morgan, Gary Scott Thompson\nDuration......: 130 min.\nMore..........: http://www.imdb.com/title/tt1596343\nTrailer.......: http://www.imdb.com/video/imdb/vi1723702553\nTrailer.......:\n\nPilot :\nDominic and his crew find themselves on the wrong side of the law once again as they try to switch lanes between a ruthless drug lord and a relentless federal agent.\n\nCats :\nVin Diesel   \t ...  \tDominic Toretto\nPaul Walker \t... \tBrian OConner\nJordana Brewster \t... \tMia Toretto\nTyrese Gibson \t... \tRoman Pearce\nLudacris \t... \tTej Parker (as Chris Ludacris Bridges)\nElsa Pataky \t... \tElena Neves\nGal Gadot \t... \tGisele Harabo\nTego Calderon \t... \tTego Leo\nDon Omar \t... \tRico Santos\nMatt Schulze \t... \tVince\nDwayne Johnson \t... \tLuke Hobbs\nSung Kang \t... \tHan Lue\nJoaquim de Almeida \t... \tHernan Reyes\nMichael Irby \t... \tZizi\nFernando Chien \t... \tWilkes \n\nData Technical :\n!!! SAMPLE !!!\nAudio.....: English\nSubtitles.: Polish .txt\nFormat                           : AVI\nFormat/Info                      : Audio Video Interleave\nFile size                        : 1.49 GiB\nDuration                         : 2h 10mn\nOverall bit rate                 : 1 640 Kbps\nVideo\nID                               : 0\nFormat                           : MPEG-4 Visual\nFormat settings, BVOP            : Yes\nFormat settings, QPel            : No\nFormat settings, GMC             : No warppoints\nFormat settings, Matrix          : Default (H.263)\nCodec ID                         : DX50\nCodec ID/Hint                    : DivX 5\nDuration                         : 2h 10mn\nBit rate                         : 1 500 Kbps\nWidth                            : 640 pixels\nHeight                           : 480 pixels\nDisplay aspect ratio             : 4:3\nFrame rate                       : 29.970 fps\nColor space                      : YUV\nChroma subsampling               : 4:2:0\nBit depth                        : 8 bits\nScan type                        : Progressive\nBits/(Pixel*Frame)               : 0.163\nStream size                      : 1.36 GiB (91%)\nWriting library                  : DivX 2151n\nAudio\nID                               : 1\nFormat                           : MPEG Audio\nFormat version                   : Version 1\nFormat profile                   : Layer 3\nCodec ID                         : 55\nCodec ID/Hint                    : MP3\nDuration                         : 2h 10mn\nBit rate mode                    : Constant\nBit rate                         : 128 Kbps\nChannel(s)                       : 2 channels\nSampling rate                    : 48.0 KHz\nStream size                      : 119 MiB (8%)\nAlignment                        : Aligned on interleaves\nInterleave, duration             : 33 ms (1.00 video frame)\n\nScreen : &lt;a href=&quot;\nhttp://img59.imageshack.us/img59/7633/fastfive2011s1.jpg&quot; rel=&quot;nofollow&quot; target=&quot;_NEW&quot;&gt;\nhttp://img59.imageshack.us/img59/7633/fastfive2011s1.jpg&lt;/a&gt; &lt;a href=&quot;\nhttp://img696.imageshack.us/img696/8995/fastfive2011s2.jpg&quot; rel=&quot;nofollow&quot; target=&quot;_NEW&quot;&gt;\nhttp://img696.imageshack.us/img696/8995/fastfive2011s2.jpg&lt;/a&gt; &lt;a href=&quot;\nhttp://img192.imageshack.us/img192/8717/fastfive2011s3.jpg&quot; rel=&quot;nofollow&quot; target=&quot;_NEW&quot;&gt;\nhttp://img192.imageshack.us/img192/8717/fastfive2011s3.jpg&lt;/a&gt; &lt;a href=&quot;\nhttp://img718.imageshack.us/img718/1455/fastfive2011s4.jpg&quot; rel=&quot;nofollow&quot; target=&quot;_NEW&quot;&gt;\nhttp://img718.imageshack.us/img718/1455/fastfive2011s4.jpg&lt;/a&gt; &lt;a href=&quot;\nhttp://img198.imageshack.us/img198/745/fastfive2011s5.jpg&quot; rel=&quot;nofollow&quot; target=&quot;_NEW&quot;&gt;\nhttp://img198.imageshack.us/img198/745/fastfive2011s5.jpg&lt;/a&gt;","torrent":{"xt":"urn:btih:b2d919ba11fb6225814a3ca0c05d9c6e3d7739a3","amp;dn":"Fast+Five+%2A2011%2A+%5BPPVRip.XviD-miguel%5D+%5BENG%5D","amp;tr":["udp%3A%2F%2Ftracker.openbittorrent.com%3A80","udp%3A%2F%2Fopen.demonii.com%3A1337","udp%3A%2F%2Ftracker.coppersurfer.tk%3A6969","udp%3A%2F%2Fexodus.desync.com%3A6969"],"infoHash":"b2d919ba11fb6225814a3ca0c05d9c6e3d7739a3","infoHashBuffer":{"type":"Buffer","data":[178,217,25,186,17,251,98,37,129,74,60,160,192,93,156,110,61,119,57,163]},"announce":[],"urlList":[]}}